<svg xmlns="http://www.w3.org/2000/svg" xml:space="preserve" id="Layer_1" fill="currentColor" viewBox="0 -0.91 122.88 122.88"><path id="SVGRepo_iconCarrier" d="M7.6 22.7c-2.91-2.12-3.56-6.2-1.44-9.12s6.2-3.56 9.11-1.44l104.93 76.5c2.91 2.12 3.55 6.2 1.43 9.12-2.12 2.91-6.2 3.56-9.11 1.44zm81.25 29.27V23.09l-28.42 8.16-24.01-17.5L96.79 0v57.76zm-52.52 5.49v45.08c.03.32.05.64.05.96v.01c0 7.76-8.14 15.46-18.19 17.2C8.15 122.44 0 117.55 0 109.79S8.15 94.33 18.19 92.6c3.78-.65 7.29-.36 10.21.66V51.68zm56.54 41.23c-2.77 2.77-6.71 4.88-11.09 5.63-8.39 1.45-15.19-2.63-15.19-9.12-.01-4.03 2.62-8.04 6.62-10.84z"/></svg>